<svg width="80" height="80" viewBox="0 0 80 80" fill="none" xmlns="http://www.w3.org/2000/svg">
<rect x="0.701172" width="78.3457" height="80" rx="20" fill="black"/>
<path d="M74.0746 32.565L6.21839 51.131C6.21839 51.131 18.5112 47.4915 18.1057 45.946C18.1057 45.946 13.2433 23.81 33.802 18.1851C54.3607 12.5602 60.9888 34.2129 60.9888 34.2129C61.4281 35.8871 74.0746 32.565 74.0746 32.565Z" fill="white" stroke="white"/>
<path d="M52.5978 39.6034C52.7023 42.6116 51.8069 45.5674 50.0572 47.9899C48.3076 50.4124 45.8067 52.1591 42.9613 52.9459C40.116 53.7327 37.0936 53.5131 34.386 52.3231C31.6783 51.1331 29.4447 49.0425 28.0484 46.3915C28.6927 46.0377 29.4943 46.2861 29.9074 46.8951C31.1539 48.7326 32.8849 50.1851 34.9117 51.0759C37.3436 52.1448 40.0582 52.3419 42.6137 51.6353C45.1693 50.9287 47.4156 49.3598 48.987 47.184C50.2985 45.3681 51.0757 43.2186 51.2423 40.9866C51.2973 40.2508 51.8638 39.63 52.5978 39.6034Z" fill="white"/>
<path d="M60.4066 38.8855C60.6764 43.8066 59.269 48.6714 56.4237 52.6529C53.5784 56.6345 49.4707 59.4872 44.7988 60.7261C40.1268 61.9651 35.1788 61.514 30.7958 59.4494C26.4127 57.3848 22.8649 53.8341 20.7555 49.4008C22.5899 48.4907 24.7815 49.2929 26.0302 50.9166C27.7007 53.0886 29.8609 54.8418 32.348 56.0133C35.9536 57.7117 40.024 58.0829 43.8673 57.0636C47.7105 56.0444 51.0896 53.6977 53.4302 50.4224C55.0492 48.1569 56.1022 45.5437 56.5242 42.8081C56.8376 40.7762 58.3631 39.0023 60.4066 38.8855Z" fill="white"/>
<path d="M55.9442 35.5945C54.779 31.1541 51.934 27.3682 48.0352 25.0696C44.1363 22.7711 39.5029 22.1482 35.1543 23.338C30.8057 24.5278 27.098 27.4329 24.847 31.4141C22.596 35.3953 21.986 40.1265 23.1512 44.5669C25.234 43.9971 26.4163 41.8221 26.4836 39.6577C26.5513 37.4789 27.1413 35.3296 28.2282 33.4074C29.9615 30.3419 32.8163 28.105 36.1648 27.1888C39.5132 26.2727 43.0809 26.7523 46.0831 28.5222C47.9655 29.632 49.5289 31.1921 50.6545 33.0444C51.7725 34.8845 53.8614 36.1644 55.9442 35.5945Z" fill="black"/>
<path d="M46.5409 39.5494C49.2044 38.8206 50.8093 36.0228 49.4304 33.6388C49.2408 33.3109 49.0522 33.0176 48.8715 32.7772C47.932 31.5269 46.7606 30.4779 45.4241 29.69C44.0875 28.9021 42.6121 28.3906 41.0821 28.185C39.552 27.9793 37.9972 28.0833 36.5065 28.4912C35.0158 28.899 33.6184 29.6027 32.3941 30.5621C31.1697 31.5214 30.1424 32.7176 29.3707 34.0823C28.5991 35.447 28.0983 36.9536 27.8968 38.516C27.8591 38.8084 27.8483 39.1456 27.8582 39.5106C27.9336 42.2774 30.82 43.8507 33.4835 43.122L39.8861 41.3702L46.5409 39.5494Z" fill="black"/>
</svg>
